inDegrees=yes
name=ik_S40_A05_T01
DataType=double
version=3
OpenSimVersion=4.3-2021-08-27-4bc7ad9
endheader
time	pelvis_tilt	pelvis_list	pelvis_rotation	pelvis_tx	pelvis_ty	pelvis_tz	hip_flexion_r	hip_adduction_r	hip_rotation_r	knee_angle_r	knee_angle_r_beta	ankle_angle_r	subtalar_angle_r	mtp_angle_r	hip_flexion_l	hip_adduction_l	hip_rotation_l	knee_angle_l	knee_angle_l_beta	ankle_angle_l	subtalar_angle_l	mtp_angle_l	lumbar_extension	lumbar_bending	lumbar_rotation	arm_flex_r	arm_add_r	arm_rot_r	elbow_flex_r	pro_sup_r	wrist_flex_r	wrist_dev_r	arm_flex_l	arm_add_l	arm_rot_l	elbow_flex_l	pro_sup_l	wrist_flex_l	wrist_dev_l
6.099999999999958	-8.047452387200231	-1.11078879424932	33.47546036280194	0	0.9399999999999999	0	24.79083395666585	-8.518563748608996	-7.53374385630862	26.78447123269351	0.4674772114162061	0	0	0	24.79083395666585	-8.518563748608996	-7.53374385630862	26.78447123269351	0.4674772114162061	0	0	0	-3.455794589956306	-2.975252808706746	8.276819315953993	14.52050073028898	-8.596658777623558	-8.704126177511283	64.956539771148	163.7029232241407	0	0	24.71138483045009	-2.466121719199377	-8.947041356469953	46.57911626976539	142.14392377553	0	0
6.119999999999957	-8.106741413182112	-1.113485700699739	33.5666881307723	0	0.9399999999999999	0	24.79701242396592	-8.520025801665565	-7.535310183233904	26.79109134722501	0.4675927542116398	0	0	0	24.79701242396592	-8.520025801665565	-7.535310183233904	26.79109134722501	0.4675927542116398	0	0	0	-3.507241239882699	-2.945265560250784	8.304551403478621	14.59364802249829	-8.693343669923278	-8.802145940455787	64.96197923235411	163.6979583977465	0	0	24.72073865953436	-2.457293549044839	-8.923226866780768	46.83478785122529	142.6300059397285	0	0
6.139999999999957	-8.134380870979685	-1.10575062105323	33.5926197715977	0	0.9399999999999999	0	24.83669687209744	-8.526966798210749	-7.543767572734174	26.84149073836465	0.4684723895280269	0	0	0	24.83669687209744	-8.526966798210749	-7.543767572734174	26.84149073836465	0.4684723895280269	0	0	0	-3.5325038735744	-2.916205312200228	8.304652049676404	13.32026313818144	-5.820755526469429	-9.049637215063335	63.89098763964252	166.1575159994288	0	0	24.63046061454773	-2.499867142061723	-8.884065769833351	47.07849623309225	142.990419390317	0	0
6.159999999999957	-8.211591360631575	-1.102183351556975	33.58204193024216	0	0.9399999999999999	0	24.84451688149242	-8.528820752619128	-7.545753234200049	26.84983241377326	0.4686179792290399	0	0	0	24.84451688149242	-8.528820752619128	-7.545753234200049	26.84983241377326	0.4686179792290399	0	0	0	-3.595489169452671	-2.873753616176105	8.379332202817453	13.41971160721284	-6.026686257107034	-9.24681235801544	63.43407972840838	165.2228083209985	0	0	24.63696898745385	-2.494605962846036	-8.72524293627016	47.29892460238655	143.2250251276959	0	0
6.179999999999956	-8.260814771508375	-1.07390726398561	33.48765732085545	0	0.9399999999999999	0	24.84849772202928	-8.529760486816565	-7.546761452509396	26.85409224023899	0.4686923272264306	0	0	0	24.84849772202928	-8.529760486816565	-7.546761452509396	26.85409224023899	0.4686923272264306	0	0	0	-3.619874909571149	-2.831783183315742	8.519441295182947	13.95339758580809	-5.741503071984114	-10.2664135220434	63.3893165246806	164.7508744575348	0	0	24.54497084119717	-2.542283254814832	-8.650489317872028	47.51422152078658	143.4577523889	0	0
6.199999999999956	-8.291341998028091	-1.028172660380195	33.42843990395473	0	0.9399999999999999	0	24.85551853443965	-8.531420550198785	-7.548541556230997	26.86159169366208	0.4688232173807633	0	0	0	24.85551853443965	-8.531420550198785	-7.548541556230997	26.86159169366208	0.4688232173807633	0	0	0	-3.618980160246402	-2.784927634088779	8.647917846969255	14.83490109785667	-5.750867473710373	-10.9071215768666	62.64274946325045	164.5277112289501	0	0	24.51056719777862	-2.405481961200753	-8.624283323390751	47.63939947366065	143.6893508277846	0	0
6.219999999999955	-8.314797231557758	-0.990345498727653	33.35241652280122	0	0.9399999999999999	0	24.8634592075816	-8.533293162503394	-7.550551899741398	26.87008628669202	0.4689714759977527	0	0	0	24.8634592075816	-8.533293162503394	-7.550551899741398	26.87008628669202	0.4689714759977527	0	0	0	-3.617541010102467	-2.746255615994861	8.757131375281123	15.67534703273292	-5.674271054733834	-11.32667221159969	61.79940189010014	165.3691136025507	0	0	24.26371977104408	-2.429493839606649	-8.533882919473735	48.07410293754747	144.2774208546833	0	0
6.239999999999955	-8.345638824411125	-0.9907437788946859	33.26435047717488	0	0.9399999999999999	0	24.87167006282265	-8.535233591946788	-7.552633633903755	26.87884928422014	0.4691244191569626	0	0	0	24.87167006282265	-8.535233591946788	-7.552633633903755	26.87884928422014	0.4691244191569626	0	0	0	-3.643240227629689	-2.73505392677131	8.861824776107262	16.14256972827796	-5.484259083298292	-11.59336961651103	61.39231049483941	166.0554536046035	0	0	23.85366519651574	-2.550188768636364	-8.021358048240621	48.58612521119873	144.0522198447703	0	0
6.259999999999954	-8.375330919671315	-0.9932313754491198	33.20160720239078	0	0.9399999999999999	0	24.87651413412918	-8.536376673591072	-7.553860778397075	26.88402280561924	0.4692147141392993	0	0	0	24.87651413412918	-8.536376673591072	-7.553860778397075	26.88402280561924	0.4692147141392993	0	0	0	-3.670110555112992	-2.720388829560804	8.871722672268969	16.24842671446433	-5.313349550160799	-11.63560973002032	61.33804931551157	166.2170121379746	0	0	23.76088911782836	-2.613194385664332	-7.802366534271321	48.71222958007521	143.8302920615171	0	0
